<svg xmlns="http://www.w3.org/2000/svg" viewBox="0 0 24 24"><defs><style>.cls-1{fill:#8493a6;}.cls-2{fill:none;opacity:0.2;}</style></defs><title>favourite-outline</title><g id="Icon-outline"><path class="cls-1" d="M8.25,5a4.3,4.3,0,0,1,2.27.64l.3.19L12,6.7l1.18-.87.3-.2A4.36,4.36,0,0,1,15.75,5,4.28,4.28,0,0,1,19,6.48a4.06,4.06,0,0,1,1,2.28A4,4,0,0,1,18.76,12L12,18.59l0,0,0,0L5.28,12.05l-.49-.56A3.91,3.91,0,0,1,4,9.11,4,4,0,0,1,5.23,6.22,4.27,4.27,0,0,1,8.25,5m0-2A6.3,6.3,0,0,0,3.83,4.79a6,6,0,0,0-.59,8l.59.67L10.58,20l.71.69A1,1,0,0,0,12,21a1,1,0,0,0,.71-.29l.71-.69,6.74-6.58h0a6,6,0,0,0,.36-8.26,6.37,6.37,0,0,0-8.1-1.24c-.15.09-.29.19-.43.29l-.43-.29A6.32,6.32,0,0,0,8.25,3Z"/></g><g id="Padding"><path class="cls-2" d="M0,0V24H24V0ZM22,22H2V2H22Z"/></g></svg>