<svg width="100%" height="100%" viewBox="0 0 570 481" fill="none" xmlns="http://www.w3.org/2000/svg">
<g clip-path="url(#clip0)">
<path d="M543.253 389.261C529.242 417.612 505.996 437.361 477.973 451.377C476.063 452.333 474.152 453.289 472.242 454.244C450.588 464.119 426.387 470.808 401.867 474.949C398.046 475.587 394.225 476.224 390.404 476.861C345.504 482.913 299.649 481.639 265.577 478.772C175.778 470.49 89.4818 431.628 38.2136 348.169C-26.1104 243.05 -4.13834 180.297 65.2806 97.7943C130.242 20.7069 255.387 -1.90967 349.325 0.00158798C394.543 0.957218 509.18 10.5135 488.8 86.9639C472.242 149.08 345.186 138.568 337.543 188.898C334.677 208.329 346.141 220.752 364.61 228.716C368.431 230.308 372.253 231.901 376.392 233.175C377.666 233.494 379.258 234.131 380.532 234.449C384.99 235.724 389.767 236.679 394.862 237.953C399.001 238.909 403.141 239.546 407.599 240.183C408.873 240.502 410.147 240.502 411.42 240.82C417.471 241.776 423.521 242.413 429.89 243.05C430.845 243.05 432.119 243.369 433.074 243.369C434.029 243.369 434.985 243.687 435.94 243.687C445.493 244.643 454.728 245.28 463.325 246.235C484.342 248.147 502.175 249.739 511.409 253.88C563.314 276.816 569.683 335.746 543.253 389.261Z" fill="#F2F8FF"/>
<path d="M430.525 186.348C430.525 186.348 525.101 110.534 542.615 188.259C560.447 265.984 391.358 210.238 430.525 186.348Z" fill="#F2F8FF"/>
<path d="M523.19 124.869C529.559 118.498 540.704 115.312 553.441 121.365C566.179 127.417 573.184 139.203 569.363 147.167C564.905 155.449 499.626 148.441 523.19 124.869Z" fill="#F2F8FF"/>
<path d="M161.129 458.065C126.737 457.747 100.944 457.109 100.944 457.109" stroke="#7BB4FA" stroke-miterlimit="10" stroke-linecap="round"/>
<path d="M185.33 458.065C180.235 458.065 174.821 458.065 170.045 458.065" stroke="#7BB4FA" stroke-miterlimit="10" stroke-linecap="round"/>
<path d="M368.43 414.106C368.43 414.106 247.425 410.921 243.603 432.581C239.782 454.242 321.939 438.315 321.939 451.057C321.939 457.746 251.246 458.702 189.151 458.383" stroke="#7BB4FA" stroke-miterlimit="10" stroke-linecap="round"/>
<path d="M513.955 40.1362H537.52" stroke="#7BB4FA" stroke-miterlimit="10" stroke-linecap="round"/>
<path d="M333.084 40.1362H505.039" stroke="#7BB4FA" stroke-miterlimit="10" stroke-linecap="round"/>
<path d="M346.458 53.8337H424.793" stroke="#7BB4FA" stroke-miterlimit="10" stroke-linecap="round"/>
<path d="M377.346 70.7166H146.162C139.156 102.571 128.011 164.368 133.743 224.254C140.112 292.741 159.536 351.034 167.179 371.103H398.682C391.358 351.034 371.933 292.741 365.246 224.254C359.514 164.687 370.341 102.571 377.346 70.7166Z" stroke="#7BB4FA" stroke-miterlimit="10" stroke-linecap="round" stroke-linejoin="round"/>
<path d="M391.039 78.9988H159.855C152.849 110.853 141.704 172.65 147.436 232.537C153.804 301.023 173.229 359.317 180.872 379.385H412.374C405.05 359.317 385.626 301.023 378.939 232.537C372.888 172.65 384.034 110.535 391.039 78.9988Z" fill="white"/>
<path d="M367.156 158.634C369.704 133.788 373.844 112.446 377.028 97.7927H174.821C171.637 112.127 167.497 133.788 164.95 158.634H367.156Z" fill="#E0EEFF"/>
<path d="M263.983 178.065H162.721C161.447 195.904 161.447 215.016 163.039 233.81C163.358 236.359 163.676 238.907 163.676 241.456H264.939C264.62 238.907 264.302 236.359 264.302 233.81C262.709 215.335 262.71 196.222 263.983 178.065Z" fill="#E0EEFF"/>
<path d="M391.357 179.021H274.492C273.218 196.859 272.899 215.972 275.128 234.766C275.447 237.314 275.765 239.863 276.084 242.411H392.95C392.631 239.863 392.313 237.314 391.994 234.766C389.765 215.972 390.084 196.859 391.357 179.021Z" stroke="#7BB4FA" stroke-miterlimit="10" stroke-linecap="round" stroke-linejoin="round"/>
<path d="M167.179 255.79C174.821 304.846 188.196 344.663 193.609 359.954H402.821C397.089 344.663 384.034 304.846 376.391 255.79H167.179Z" stroke="#7BB4FA" stroke-miterlimit="10" stroke-linecap="round" stroke-linejoin="round"/>
<path d="M176.732 263.116C184.374 312.172 197.749 351.99 203.48 367.28H414.603C408.872 351.99 395.497 312.172 387.855 263.116H176.732Z" fill="#E0EEFF"/>
<path d="M356.33 222.025C387.634 222.025 413.011 196.639 413.011 165.324C413.011 134.009 387.634 108.623 356.33 108.623C325.025 108.623 299.648 134.009 299.648 165.324C299.648 196.639 325.025 222.025 356.33 222.025Z" fill="#00C6D7"/>
<path d="M357.922 194.949L356.648 187.941C347.095 187.941 341.682 181.57 340.408 176.154L349.324 172.651C350.279 176.473 353.464 179.658 359.196 178.703C362.38 178.066 364.609 176.154 364.291 173.606C363.972 171.695 362.38 170.739 359.514 170.421L353.464 169.784C345.821 169.147 340.408 165.324 339.453 158.953C338.179 151.627 343.274 145.574 349.961 143.345L349.006 136.018L356.648 134.744L357.922 142.07C365.564 142.707 369.704 147.167 371.296 151.627L362.38 155.449C361.743 153.538 360.151 150.034 354.737 150.99C350.916 151.627 349.324 154.175 349.642 156.086C349.961 157.998 351.553 158.953 354.101 159.272L360.151 159.59C369.386 160.227 373.844 165.005 374.48 170.739C375.436 176.792 371.933 183.162 364.291 185.711L365.246 193.037L357.922 194.949Z" fill="white"/>
<path d="M472.238 454.242C450.585 464.117 426.384 470.807 401.864 474.948C398.043 475.585 394.222 476.222 390.4 476.859C394.858 452.968 404.412 398.179 393.585 377.155C392.948 375.881 392.311 374.925 391.674 373.97C384.032 362.821 372.568 356.131 363.97 340.204C362.378 337.019 360.786 333.515 359.194 329.374C356.328 321.091 354.417 310.898 353.462 297.838C351.87 275.54 350.277 260.568 349.004 250.693C349.004 250.693 349.004 250.693 349.004 250.375C348.685 247.826 348.367 245.915 348.048 244.004C347.73 243.048 347.73 242.093 347.411 241.137V240.5C347.411 240.5 347.411 240.5 347.411 240.181C347.093 238.589 347.412 237.315 348.367 236.359C348.685 236.04 349.004 235.722 349.322 235.403C350.277 234.766 351.233 234.448 352.188 234.448C352.825 234.448 353.462 234.448 354.099 234.766C356.646 235.722 359.512 237.315 362.06 239.863C364.607 242.411 367.155 246.234 368.747 251.649C375.115 272.036 373.842 305.164 380.529 295.926C384.35 290.511 384.987 267.576 382.121 244.323C381.803 241.137 381.166 237.952 380.529 234.766C378.3 221.706 374.797 209.283 370.339 201.638C359.194 181.888 359.194 171.695 361.741 167.235C361.741 167.235 361.741 166.917 362.06 166.917C362.696 165.961 364.289 165.642 365.244 166.598C365.562 166.917 365.881 167.235 366.518 167.554C368.428 169.146 371.294 171.376 374.16 174.243C374.16 174.243 374.479 174.243 374.479 174.562C374.797 174.88 374.797 174.88 375.115 175.199C386.261 186.029 401.864 204.505 407.277 228.077C407.914 228.077 408.551 228.077 409.188 228.077C410.143 228.077 410.78 228.077 411.736 228.395C412.691 228.395 413.965 228.714 415.557 229.032C416.831 229.351 418.104 229.67 420.015 230.307C426.065 232.218 430.523 238.907 433.071 244.004C433.071 244.323 433.389 244.641 433.389 244.96C434.981 247.826 435.618 250.056 435.618 250.056C435.618 250.056 435.937 249.419 438.166 249.419C438.166 249.419 438.484 249.419 438.803 249.419C441.032 249.419 444.534 249.738 450.585 251.012C452.814 251.33 454.406 252.286 455.998 253.242C457.272 254.197 458.546 255.153 459.501 256.109C461.73 258.338 463.322 261.205 464.277 263.435C465.551 266.621 465.87 269.487 465.87 269.487C465.87 269.487 468.099 269.487 470.646 270.443C475.741 272.036 483.065 275.54 484.976 283.822C484.976 283.822 484.976 283.822 484.976 284.14C491.026 308.668 477.015 418.884 472.238 454.242Z" fill="#FFB3A5"/>
<path d="M391.674 363.458C379.255 345.62 356.965 339.249 353.462 287.326C351.87 261.843 349.959 245.916 348.367 236.359C347.412 237.315 347.093 238.908 347.411 240.5C349.004 248.783 351.551 265.665 353.462 297.838C356.965 349.442 379.255 356.132 391.674 373.97C397.087 380.978 399.317 392.445 399.635 404.869C400.59 388.623 398.68 372.377 391.674 363.458Z" fill="#F18A77"/>
<path d="M349.961 253.242C349.961 253.242 344.229 235.403 348.05 233.811C351.871 231.899 353.782 235.403 354.737 237.633C355.693 239.863 357.922 249.419 356.966 249.738C356.011 250.056 349.961 253.242 349.961 253.242Z" fill="#5A5289"/>
<path d="M365.246 165.961C369.067 168.191 372.888 171.058 376.709 173.925C380.212 176.792 383.715 179.977 386.581 183.481C392.95 190.489 397.726 198.453 401.866 206.735C403.777 210.876 405.369 215.336 406.961 219.795C408.235 224.255 409.508 228.714 410.145 233.493C412.056 242.73 412.374 251.968 411.737 261.206C409.827 252.287 408.553 243.367 406.006 234.448C403.777 225.848 400.592 217.247 396.771 209.283C392.95 201.32 388.492 193.356 383.078 186.348C380.531 182.844 377.346 179.34 374.48 175.836C371.615 172.332 368.43 169.147 365.246 165.961Z" fill="#F18A77"/>
<path d="M459.503 255.472C460.777 256.109 462.05 257.064 463.006 258.339C463.961 259.613 464.916 260.887 465.872 262.161L465.553 261.524C465.871 261.843 466.19 262.48 466.19 262.798V262.161C466.827 263.117 467.145 264.072 467.464 265.028C467.782 265.665 467.782 265.984 468.101 266.621C468.419 267.258 468.419 267.576 468.419 268.213L466.19 265.984C468.737 265.984 470.966 266.621 473.196 267.258C475.425 267.895 477.654 269.169 479.564 270.762C481.475 272.354 483.067 274.266 484.022 276.177C484.978 278.407 485.614 280.637 485.296 282.866C484.022 280.955 482.749 279.362 481.475 277.77C479.883 276.496 478.609 275.221 476.698 274.266C475.106 273.31 473.196 272.673 471.285 272.036C469.374 271.399 467.464 270.762 465.553 270.443L463.324 270.125V268.213C463.324 267.895 463.324 267.258 463.324 266.939C463.324 266.621 463.324 265.984 463.006 265.665C463.006 264.709 462.687 263.754 462.369 262.798V262.161C462.369 262.48 462.687 263.117 463.006 263.435L462.687 262.798C462.369 261.524 462.05 260.25 461.413 258.657C460.458 258.02 460.14 256.746 459.503 255.472Z" fill="#F18A77"/>
<path d="M441.352 272.036C438.168 264.072 435.62 256.427 432.436 249.419C430.844 245.915 429.251 242.093 427.022 238.908C424.793 235.722 422.564 232.537 419.38 229.988C423.52 230.625 427.341 233.492 430.525 236.359C433.709 239.545 435.62 243.367 437.531 247.19C439.123 251.012 440.397 255.153 441.033 259.294C441.67 263.435 441.989 267.895 441.352 272.036Z" fill="#F18A77"/>
<path d="M372.888 178.066C372.888 178.066 360.151 166.917 361.743 164.05C363.335 161.183 369.067 166.598 375.754 173.606C374.799 176.473 372.888 178.066 372.888 178.066Z" fill="#5A5289"/>
<path d="M455.682 270.443C454.089 270.443 452.497 270.443 450.587 270.125C445.173 269.488 441.352 268.851 441.352 268.851L441.034 264.391C445.81 265.984 459.821 268.851 464.279 264.391L464.916 268.532C462.369 270.762 460.777 270.443 455.682 270.443Z" fill="#5A5289"/>
<path d="M457.911 273.947C460.725 273.947 463.006 271.665 463.006 268.85C463.006 266.035 460.725 263.753 457.911 263.753C455.097 263.753 452.816 266.035 452.816 268.85C452.816 271.665 455.097 273.947 457.911 273.947Z" fill="#5A5289"/>
</g>
<defs>
<clipPath id="clip0">
<rect width="570" height="481" fill="white"/>
</clipPath>
</defs>
</svg>
